<svg id="Layer_1" enable-background="new 0 0 300 300" viewBox="0 0 300 300" xmlns="http://www.w3.org/2000/svg"><g><g><g><path d="m43.75 193.75h50c3.456 0 6.25-2.794 6.25-6.25s-2.794-6.25-6.25-6.25h-50c-3.456 0-6.25 2.794-6.25 6.25s2.794 6.25 6.25 6.25z"/><path d="m39.006 160.313c1.225 1.45 2.988 2.188 4.744 2.188 1.438 0 2.888-.494 4.069-1.519l17.802-15.259 17.817 15.271c1.175 1.012 2.625 1.506 4.063 1.506 1.756 0 3.519-.737 4.744-2.175 2.263-2.619 1.95-6.569-.675-8.806l-16.356-14.019 16.355-14.019c2.625-2.237 2.919-6.188.669-8.806-2.231-2.625-6.188-2.912-8.8-.669l-17.817 15.271-17.802-15.259c-2.612-2.256-6.556-1.962-8.8.669-2.263 2.619-1.956 6.569.669 8.806l16.34 14.007-16.341 14.006c-2.624 2.244-2.931 6.188-.681 8.807z"/><path d="m118.75 193.75h50c3.456 0 6.25-2.794 6.25-6.25s-2.794-6.25-6.25-6.25h-50c-3.456 0-6.25 2.794-6.25 6.25s2.794 6.25 6.25 6.25z"/><path d="m120.581 160.669c1.219 1.219 2.819 1.831 4.419 1.831s3.2-.612 4.419-1.831l14.331-14.331 14.331 14.331c1.219 1.219 2.819 1.831 4.419 1.831s3.2-.612 4.419-1.831c2.444-2.444 2.444-6.394 0-8.838l-14.331-14.331 14.331-14.331c2.444-2.444 2.444-6.394 0-8.838s-6.394-2.444-8.838 0l-14.331 14.331-14.331-14.331c-2.444-2.444-6.394-2.444-8.838 0s-2.444 6.394 0 8.838l14.331 14.331-14.331 14.331c-2.443 2.444-2.443 6.394 0 8.838z"/><path d="m193.75 193.75h50c3.456 0 6.25-2.794 6.25-6.25s-2.794-6.25-6.25-6.25h-50c-3.456 0-6.25 2.794-6.25 6.25s2.794 6.25 6.25 6.25z"/><path d="m293.75 81.25h-287.5c-3.456 0-6.25 2.794-6.25 6.25v125c0 3.456 2.794 6.25 6.25 6.25h287.5c3.456 0 6.25-2.794 6.25-6.25v-125c0-3.456-2.794-6.25-6.25-6.25zm-6.25 125h-275v-112.5h275z"/></g></g></g><g/><g/><g/><g/><g/><g/><g/><g/><g/><g/><g/><g/><g/><g/><g/></svg>