<svg id="Layer_1" enable-background="new 0 0 299.92 299.92" viewBox="0 0 299.92 299.92" xmlns="http://www.w3.org/2000/svg"><g><g><g><path d="m173.771 195.6c20.864 0 34.869-17.995 34.869-44.773v-53.027c0-3.606-2.914-6.52-6.52-6.52h-6.52v-40.724c0-30.24-20.962-50.556-52.16-50.556h-13.04c-31.198 0-52.16 20.316-52.16 50.556v40.724h-6.52c-3.606 0-6.52 2.914-6.52 6.52v53.027c0 22.012 14.631 44.773 39.12 44.773zm-82.491-145.044c0-23.139 14.989-37.516 39.12-37.516h13.04c24.131 0 39.12 14.377 39.12 37.516v40.724h-91.28zm-13.04 100.271v-46.507h117.36v46.507c0 5.294-1.05 31.733-21.829 31.733h-69.451c-16.326 0-26.08-16.13-26.08-31.733z"/><path d="m58.68 286.88h-52.16c-3.606 0-6.52 2.914-6.52 6.52s2.914 6.52 6.52 6.52h52.16c3.606 0 6.52-2.914 6.52-6.52s-2.914-6.52-6.52-6.52z"/><path d="m8.43 258.89c1.271 1.271 2.941 1.91 4.61 1.91s3.338-.639 4.61-1.91l11.69-11.69 11.69 11.69c1.271 1.271 2.94 1.91 4.61 1.91s3.338-.639 4.61-1.91c2.549-2.549 2.549-6.67 0-9.219l-11.69-11.69 11.69-11.69c2.549-2.549 2.549-6.67 0-9.219s-6.67-2.549-9.219 0l-11.69 11.69-11.69-11.69c-2.549-2.549-6.67-2.549-9.219 0s-2.549 6.67 0 9.219l11.69 11.69-11.692 11.689c-2.549 2.55-2.549 6.67 0 9.22z"/><path d="m136.92 286.88h-52.16c-3.606 0-6.52 2.914-6.52 6.52s2.914 6.52 6.52 6.52h52.16c3.606 0 6.52-2.914 6.52-6.52s-2.914-6.52-6.52-6.52z"/><path d="m86.67 258.89c1.271 1.271 2.94 1.91 4.61 1.91s3.338-.639 4.61-1.91l11.69-11.69 11.69 11.69c1.271 1.271 2.94 1.91 4.61 1.91s3.338-.639 4.61-1.91c2.549-2.549 2.549-6.67 0-9.219l-11.69-11.69 11.69-11.69c2.549-2.549 2.549-6.67 0-9.219s-6.67-2.549-9.219 0l-11.69 11.69-11.69-11.69c-2.549-2.549-6.67-2.549-9.219 0s-2.549 6.67 0 9.219l11.69 11.69-11.69 11.69c-2.551 2.549-2.551 6.669-.002 9.219z"/><path d="m215.16 286.88h-52.16c-3.606 0-6.52 2.914-6.52 6.52s2.914 6.52 6.52 6.52h52.16c3.606 0 6.52-2.914 6.52-6.52s-2.914-6.52-6.52-6.52z"/><path d="m206.73 217.07c-2.549-2.549-6.67-2.549-9.219 0l-11.69 11.69-11.69-11.69c-2.549-2.549-6.67-2.549-9.219 0s-2.549 6.67 0 9.219l11.69 11.69-11.69 11.69c-2.549 2.549-2.549 6.67 0 9.219 1.271 1.271 2.94 1.91 4.61 1.91s3.338-.639 4.61-1.91l11.69-11.69 11.69 11.69c1.271 1.271 2.941 1.91 4.61 1.91s3.338-.639 4.61-1.91c2.549-2.549 2.549-6.67 0-9.219l-11.69-11.69 11.69-11.69c2.547-2.549 2.547-6.669-.002-9.219z"/><path d="m293.4 286.88h-52.16c-3.606 0-6.52 2.914-6.52 6.52s2.914 6.52 6.52 6.52h52.16c3.606 0 6.52-2.914 6.52-6.52s-2.914-6.52-6.52-6.52z"/></g></g></g><g/><g/><g/><g/><g/><g/><g/><g/><g/><g/><g/><g/><g/><g/><g/></svg>