<svg id="Layer_1" enable-background="new 0 0 300 300" viewBox="0 0 300 300" xmlns="http://www.w3.org/2000/svg"><g><g><g><path d="m250 0h-200c-27.569 0-50 22.431-50 50v187.5c0 27.569 22.431 50 50 50h6.25c-3.456 0-6.25 2.794-6.25 6.25s2.794 6.25 6.25 6.25h50c3.456 0 6.25-2.794 6.25-6.25s-2.794-6.25-6.25-6.25h100c-3.456 0-6.25 2.794-6.25 6.25s2.794 6.25 6.25 6.25h50c3.456 0 6.25-2.794 6.25-6.25s-2.794-6.25-6.25-6.25h-6.25c27.569 0 50-22.431 50-50v-187.5c0-27.569-22.431-50-50-50zm37.5 237.5c0 20.681-16.819 37.5-37.5 37.5h-200c-20.681 0-37.5-16.819-37.5-37.5v-187.5c0-20.681 16.819-37.5 37.5-37.5h200c20.681 0 37.5 16.819 37.5 37.5z"/><path d="m150 81.25c-24.119 0-43.756 19.631-43.756 43.75s19.637 43.75 43.756 43.75 43.75-19.631 43.75-43.75-19.631-43.75-43.75-43.75zm0 75c-17.237 0-31.256-14.019-31.256-31.25s14.019-31.25 31.256-31.25c17.231 0 31.25 14.019 31.25 31.25s-14.019 31.25-31.25 31.25z"/><path d="m150 106.25c-10.338 0-18.756 8.412-18.756 18.75s8.419 18.75 18.756 18.75 18.75-8.412 18.75-18.75-8.412-18.75-18.75-18.75zm0 25c-3.45 0-6.256-2.8-6.256-6.25s2.806-6.25 6.256-6.25 6.25 2.8 6.25 6.25-2.8 6.25-6.25 6.25z"/><path d="m87.5 206.25c-10.338 0-18.75 8.412-18.75 18.75s8.412 18.75 18.75 18.75 18.75-8.412 18.75-18.75-8.412-18.75-18.75-18.75zm0 25c-3.45 0-6.25-2.8-6.25-6.25s2.8-6.25 6.25-6.25 6.25 2.8 6.25 6.25-2.8 6.25-6.25 6.25z"/><path d="m212.5 206.25c-10.338 0-18.75 8.412-18.75 18.75s8.412 18.75 18.75 18.75 18.75-8.412 18.75-18.75-8.412-18.75-18.75-18.75zm0 25c-3.45 0-6.25-2.8-6.25-6.25s2.8-6.25 6.25-6.25 6.25 2.8 6.25 6.25-2.8 6.25-6.25 6.25z"/></g></g></g><g/><g/><g/><g/><g/><g/><g/><g/><g/><g/><g/><g/><g/><g/><g/></svg>